<mxfile host="app.diagrams.net" agent="Mozilla/5.0 (Windows NT 10.0; Win64; x64) AppleWebKit/537.36 (KHTML, like Gecko) Chrome/130.0.0.0 Safari/537.36" version="24.8.4" pages="2">
  <diagram name="Side-1" id="UHtwvV7Q3UJnDrzv-0JF">
    <mxGraphModel dx="975" dy="530" grid="1" gridSize="10" guides="1" tooltips="1" connect="1" arrows="1" fold="1" page="1" pageScale="1" pageWidth="827" pageHeight="1169" math="0" shadow="0">
      <root>
        <mxCell id="0" />
        <mxCell id="1" parent="0" />
        <mxCell id="fYFEWOZhc2wbTwGJsDS--7" style="edgeStyle=orthogonalEdgeStyle;rounded=0;orthogonalLoop=1;jettySize=auto;html=1;dashed=1;endArrow=none;endFill=0;" parent="1" source="fYFEWOZhc2wbTwGJsDS--1" edge="1">
          <mxGeometry relative="1" as="geometry">
            <mxPoint x="140" y="560" as="targetPoint" />
          </mxGeometry>
        </mxCell>
        <mxCell id="fYFEWOZhc2wbTwGJsDS--1" value=": SummaryWindow" style="rounded=0;whiteSpace=wrap;html=1;" parent="1" vertex="1">
          <mxGeometry x="80" y="130" width="120" height="60" as="geometry" />
        </mxCell>
        <mxCell id="fYFEWOZhc2wbTwGJsDS--8" style="edgeStyle=orthogonalEdgeStyle;rounded=0;orthogonalLoop=1;jettySize=auto;html=1;dashed=1;endArrow=none;endFill=0;" parent="1" source="fYFEWOZhc2wbTwGJsDS--9" edge="1">
          <mxGeometry relative="1" as="geometry">
            <mxPoint x="460" y="560" as="targetPoint" />
          </mxGeometry>
        </mxCell>
        <mxCell id="fYFEWOZhc2wbTwGJsDS--9" value=": SummaryVM" style="rounded=0;whiteSpace=wrap;html=1;" parent="1" vertex="1">
          <mxGeometry x="400" y="130" width="120" height="60" as="geometry" />
        </mxCell>
        <mxCell id="fYFEWOZhc2wbTwGJsDS--15" style="edgeStyle=orthogonalEdgeStyle;rounded=0;orthogonalLoop=1;jettySize=auto;html=1;dashed=1;endArrow=none;endFill=0;" parent="1" source="fYFEWOZhc2wbTwGJsDS--16" edge="1">
          <mxGeometry relative="1" as="geometry">
            <mxPoint x="780" y="560" as="targetPoint" />
          </mxGeometry>
        </mxCell>
        <mxCell id="fYFEWOZhc2wbTwGJsDS--16" value=": FacilityRepo" style="rounded=0;whiteSpace=wrap;html=1;" parent="1" vertex="1">
          <mxGeometry x="720" y="130" width="120" height="60" as="geometry" />
        </mxCell>
        <mxCell id="fYFEWOZhc2wbTwGJsDS--17" style="edgeStyle=orthogonalEdgeStyle;rounded=0;orthogonalLoop=1;jettySize=auto;html=1;dashed=1;endArrow=none;endFill=0;" parent="1" source="fYFEWOZhc2wbTwGJsDS--18" edge="1">
          <mxGeometry relative="1" as="geometry">
            <mxPoint x="1100" y="560" as="targetPoint" />
          </mxGeometry>
        </mxCell>
        <mxCell id="fYFEWOZhc2wbTwGJsDS--18" value=": FacilityDB" style="rounded=0;whiteSpace=wrap;html=1;" parent="1" vertex="1">
          <mxGeometry x="1040" y="130" width="120" height="60" as="geometry" />
        </mxCell>
        <mxCell id="fYFEWOZhc2wbTwGJsDS--25" value="openSummary" style="html=1;verticalAlign=bottom;startArrow=oval;startFill=1;endArrow=block;startSize=8;curved=0;rounded=0;" parent="1" target="fYFEWOZhc2wbTwGJsDS--26" edge="1">
          <mxGeometry width="60" relative="1" as="geometry">
            <mxPoint x="10" y="220" as="sourcePoint" />
            <mxPoint x="100" y="230" as="targetPoint" />
            <Array as="points">
              <mxPoint x="110" y="220" />
            </Array>
          </mxGeometry>
        </mxCell>
        <mxCell id="fYFEWOZhc2wbTwGJsDS--26" value="" style="html=1;points=[[0,0,0,0,5],[0,1,0,0,-5],[1,0,0,0,5],[1,1,0,0,-5]];perimeter=orthogonalPerimeter;outlineConnect=0;targetShapes=umlLifeline;portConstraint=eastwest;newEdgeStyle={&quot;curved&quot;:0,&quot;rounded&quot;:0};" parent="1" vertex="1">
          <mxGeometry x="135" y="220" width="10" height="290" as="geometry" />
        </mxCell>
        <mxCell id="fYFEWOZhc2wbTwGJsDS--37" value="" style="html=1;points=[[0,0,0,0,5],[0,1,0,0,-5],[1,0,0,0,5],[1,1,0,0,-5]];perimeter=orthogonalPerimeter;outlineConnect=0;targetShapes=umlLifeline;portConstraint=eastwest;newEdgeStyle={&quot;curved&quot;:0,&quot;rounded&quot;:0};" parent="1" vertex="1">
          <mxGeometry x="455" y="240" width="10" height="240" as="geometry" />
        </mxCell>
        <mxCell id="fYFEWOZhc2wbTwGJsDS--38" value="" style="endArrow=classic;html=1;rounded=0;" parent="1" target="fYFEWOZhc2wbTwGJsDS--37" edge="1">
          <mxGeometry width="50" height="50" relative="1" as="geometry">
            <mxPoint x="145" y="239.99999999999997" as="sourcePoint" />
            <mxPoint x="340" y="239.99999999999997" as="targetPoint" />
          </mxGeometry>
        </mxCell>
        <mxCell id="fYFEWOZhc2wbTwGJsDS--40" value="ShowFacilities()" style="edgeLabel;html=1;align=center;verticalAlign=middle;resizable=0;points=[];" parent="fYFEWOZhc2wbTwGJsDS--38" vertex="1" connectable="0">
          <mxGeometry x="-0.2141" y="-2" relative="1" as="geometry">
            <mxPoint x="23" y="-12" as="offset" />
          </mxGeometry>
        </mxCell>
        <mxCell id="fYFEWOZhc2wbTwGJsDS--41" value="" style="endArrow=open;html=1;rounded=0;dashed=1;dashPattern=8 8;endFill=0;" parent="1" edge="1">
          <mxGeometry width="50" height="50" relative="1" as="geometry">
            <mxPoint x="455" y="480" as="sourcePoint" />
            <mxPoint x="145" y="480" as="targetPoint" />
          </mxGeometry>
        </mxCell>
        <mxCell id="fYFEWOZhc2wbTwGJsDS--42" value="ObservableCollection&amp;lt;Facility&amp;gt;" style="edgeLabel;html=1;align=center;verticalAlign=middle;resizable=0;points=[];" parent="fYFEWOZhc2wbTwGJsDS--41" vertex="1" connectable="0">
          <mxGeometry x="0.1619" relative="1" as="geometry">
            <mxPoint x="8" y="-10" as="offset" />
          </mxGeometry>
        </mxCell>
        <mxCell id="fYFEWOZhc2wbTwGJsDS--43" value="" style="endArrow=classic;html=1;rounded=0;" parent="1" target="fYFEWOZhc2wbTwGJsDS--47" edge="1">
          <mxGeometry width="50" height="50" relative="1" as="geometry">
            <mxPoint x="465" y="260" as="sourcePoint" />
            <mxPoint x="740" y="260" as="targetPoint" />
          </mxGeometry>
        </mxCell>
        <mxCell id="fYFEWOZhc2wbTwGJsDS--44" value="GetFacilities()" style="edgeLabel;html=1;align=center;verticalAlign=middle;resizable=0;points=[];" parent="fYFEWOZhc2wbTwGJsDS--43" vertex="1" connectable="0">
          <mxGeometry x="-0.3552" y="-2" relative="1" as="geometry">
            <mxPoint x="44" y="-12" as="offset" />
          </mxGeometry>
        </mxCell>
        <mxCell id="fYFEWOZhc2wbTwGJsDS--45" value="" style="endArrow=open;html=1;rounded=0;dashed=1;dashPattern=8 8;endFill=0;" parent="1" edge="1">
          <mxGeometry width="50" height="50" relative="1" as="geometry">
            <mxPoint x="775" y="440" as="sourcePoint" />
            <mxPoint x="465" y="440" as="targetPoint" />
          </mxGeometry>
        </mxCell>
        <mxCell id="fYFEWOZhc2wbTwGJsDS--46" value="ObservableCollection&amp;lt;Facility&amp;gt;" style="edgeLabel;html=1;align=center;verticalAlign=middle;resizable=0;points=[];" parent="fYFEWOZhc2wbTwGJsDS--45" vertex="1" connectable="0">
          <mxGeometry x="0.1619" relative="1" as="geometry">
            <mxPoint x="8" y="-10" as="offset" />
          </mxGeometry>
        </mxCell>
        <mxCell id="fYFEWOZhc2wbTwGJsDS--47" value="" style="html=1;points=[[0,0,0,0,5],[0,1,0,0,-5],[1,0,0,0,5],[1,1,0,0,-5]];perimeter=orthogonalPerimeter;outlineConnect=0;targetShapes=umlLifeline;portConstraint=eastwest;newEdgeStyle={&quot;curved&quot;:0,&quot;rounded&quot;:0};" parent="1" vertex="1">
          <mxGeometry x="775" y="260" width="10" height="180" as="geometry" />
        </mxCell>
        <mxCell id="fYFEWOZhc2wbTwGJsDS--48" value="" style="endArrow=classic;html=1;rounded=0;" parent="1" target="fYFEWOZhc2wbTwGJsDS--50" edge="1">
          <mxGeometry width="50" height="50" relative="1" as="geometry">
            <mxPoint x="785" y="270" as="sourcePoint" />
            <mxPoint x="1040" y="270" as="targetPoint" />
          </mxGeometry>
        </mxCell>
        <mxCell id="fYFEWOZhc2wbTwGJsDS--49" value="ReadFacilities()" style="edgeLabel;html=1;align=center;verticalAlign=middle;resizable=0;points=[];" parent="fYFEWOZhc2wbTwGJsDS--48" vertex="1" connectable="0">
          <mxGeometry x="-0.3552" y="-2" relative="1" as="geometry">
            <mxPoint x="44" y="-12" as="offset" />
          </mxGeometry>
        </mxCell>
        <mxCell id="fYFEWOZhc2wbTwGJsDS--50" value="" style="html=1;points=[[0,0,0,0,5],[0,1,0,0,-5],[1,0,0,0,5],[1,1,0,0,-5]];perimeter=orthogonalPerimeter;outlineConnect=0;targetShapes=umlLifeline;portConstraint=eastwest;newEdgeStyle={&quot;curved&quot;:0,&quot;rounded&quot;:0};" parent="1" vertex="1">
          <mxGeometry x="1095" y="270" width="10" height="30" as="geometry" />
        </mxCell>
        <mxCell id="fYFEWOZhc2wbTwGJsDS--51" value="" style="endArrow=open;html=1;rounded=0;dashed=1;dashPattern=8 8;endFill=0;" parent="1" edge="1">
          <mxGeometry width="50" height="50" relative="1" as="geometry">
            <mxPoint x="1095" y="300" as="sourcePoint" />
            <mxPoint x="785" y="300" as="targetPoint" />
          </mxGeometry>
        </mxCell>
        <mxCell id="fYFEWOZhc2wbTwGJsDS--55" value="" style="html=1;points=[[0,0,0,0,5],[0,1,0,0,-5],[1,0,0,0,5],[1,1,0,0,-5]];perimeter=orthogonalPerimeter;outlineConnect=0;targetShapes=umlLifeline;portConstraint=eastwest;newEdgeStyle={&quot;curved&quot;:0,&quot;rounded&quot;:0};" parent="1" vertex="1">
          <mxGeometry x="780" y="400" width="10" height="30" as="geometry" />
        </mxCell>
        <mxCell id="fYFEWOZhc2wbTwGJsDS--56" value="" style="endArrow=classic;html=1;rounded=0;" parent="1" target="fYFEWOZhc2wbTwGJsDS--55" edge="1">
          <mxGeometry width="50" height="50" relative="1" as="geometry">
            <mxPoint x="785" y="340" as="sourcePoint" />
            <mxPoint x="800" y="400" as="targetPoint" />
            <Array as="points">
              <mxPoint x="830" y="340" />
              <mxPoint x="830" y="400" />
            </Array>
          </mxGeometry>
        </mxCell>
        <mxCell id="fYFEWOZhc2wbTwGJsDS--57" value="CreateFacilitiesFromString()" style="edgeLabel;html=1;align=center;verticalAlign=middle;resizable=0;points=[];" parent="fYFEWOZhc2wbTwGJsDS--56" vertex="1" connectable="0">
          <mxGeometry x="-0.6417" y="-1" relative="1" as="geometry">
            <mxPoint x="99" y="24" as="offset" />
          </mxGeometry>
        </mxCell>
      </root>
    </mxGraphModel>
  </diagram>
  <diagram id="_2nrGqbs9a6KQLAFMnZw" name="Side-2">
    <mxGraphModel dx="1229" dy="538" grid="1" gridSize="10" guides="1" tooltips="1" connect="1" arrows="1" fold="1" page="1" pageScale="1" pageWidth="827" pageHeight="1169" math="0" shadow="0">
      <root>
        <mxCell id="0" />
        <mxCell id="1" parent="0" />
        <mxCell id="bo5SSvQVIFfWiV_Lwgm2-1" value="LoginWindow" style="swimlane;fontStyle=1;align=center;verticalAlign=top;childLayout=stackLayout;horizontal=1;startSize=26;horizontalStack=0;resizeParent=1;resizeParentMax=0;resizeLast=0;collapsible=1;marginBottom=0;whiteSpace=wrap;html=1;" parent="1" vertex="1">
          <mxGeometry x="80" y="40" width="160" height="86" as="geometry" />
        </mxCell>
        <mxCell id="bo5SSvQVIFfWiV_Lwgm2-2" value="+ field: type" style="text;strokeColor=none;fillColor=none;align=left;verticalAlign=top;spacingLeft=4;spacingRight=4;overflow=hidden;rotatable=0;points=[[0,0.5],[1,0.5]];portConstraint=eastwest;whiteSpace=wrap;html=1;" parent="bo5SSvQVIFfWiV_Lwgm2-1" vertex="1">
          <mxGeometry y="26" width="160" height="26" as="geometry" />
        </mxCell>
        <mxCell id="bo5SSvQVIFfWiV_Lwgm2-3" value="" style="line;strokeWidth=1;fillColor=none;align=left;verticalAlign=middle;spacingTop=-1;spacingLeft=3;spacingRight=3;rotatable=0;labelPosition=right;points=[];portConstraint=eastwest;strokeColor=inherit;" parent="bo5SSvQVIFfWiV_Lwgm2-1" vertex="1">
          <mxGeometry y="52" width="160" height="8" as="geometry" />
        </mxCell>
        <mxCell id="bo5SSvQVIFfWiV_Lwgm2-4" value="+ method(type): type" style="text;strokeColor=none;fillColor=none;align=left;verticalAlign=top;spacingLeft=4;spacingRight=4;overflow=hidden;rotatable=0;points=[[0,0.5],[1,0.5]];portConstraint=eastwest;whiteSpace=wrap;html=1;" parent="bo5SSvQVIFfWiV_Lwgm2-1" vertex="1">
          <mxGeometry y="60" width="160" height="26" as="geometry" />
        </mxCell>
        <mxCell id="bo5SSvQVIFfWiV_Lwgm2-5" value="SummaryWindow" style="swimlane;fontStyle=1;align=center;verticalAlign=top;childLayout=stackLayout;horizontal=1;startSize=26;horizontalStack=0;resizeParent=1;resizeParentMax=0;resizeLast=0;collapsible=1;marginBottom=0;whiteSpace=wrap;html=1;" parent="1" vertex="1">
          <mxGeometry x="500" y="40" width="240" height="60" as="geometry" />
        </mxCell>
        <mxCell id="bo5SSvQVIFfWiV_Lwgm2-7" value="" style="line;strokeWidth=1;fillColor=none;align=left;verticalAlign=middle;spacingTop=-1;spacingLeft=3;spacingRight=3;rotatable=0;labelPosition=right;points=[];portConstraint=eastwest;strokeColor=inherit;" parent="bo5SSvQVIFfWiV_Lwgm2-5" vertex="1">
          <mxGeometry y="26" width="240" height="8" as="geometry" />
        </mxCell>
        <mxCell id="bo5SSvQVIFfWiV_Lwgm2-8" value="&amp;lt;&amp;lt;constructor&amp;gt;&amp;gt; SummaryWindow()" style="text;strokeColor=none;fillColor=none;align=left;verticalAlign=top;spacingLeft=4;spacingRight=4;overflow=hidden;rotatable=0;points=[[0,0.5],[1,0.5]];portConstraint=eastwest;whiteSpace=wrap;html=1;" parent="bo5SSvQVIFfWiV_Lwgm2-5" vertex="1">
          <mxGeometry y="34" width="240" height="26" as="geometry" />
        </mxCell>
        <mxCell id="bo5SSvQVIFfWiV_Lwgm2-9" value="LoginVM" style="swimlane;fontStyle=1;align=center;verticalAlign=top;childLayout=stackLayout;horizontal=1;startSize=26;horizontalStack=0;resizeParent=1;resizeParentMax=0;resizeLast=0;collapsible=1;marginBottom=0;whiteSpace=wrap;html=1;" parent="1" vertex="1">
          <mxGeometry x="80" y="320" width="160" height="86" as="geometry" />
        </mxCell>
        <mxCell id="bo5SSvQVIFfWiV_Lwgm2-10" value="+ field: type" style="text;strokeColor=none;fillColor=none;align=left;verticalAlign=top;spacingLeft=4;spacingRight=4;overflow=hidden;rotatable=0;points=[[0,0.5],[1,0.5]];portConstraint=eastwest;whiteSpace=wrap;html=1;" parent="bo5SSvQVIFfWiV_Lwgm2-9" vertex="1">
          <mxGeometry y="26" width="160" height="26" as="geometry" />
        </mxCell>
        <mxCell id="bo5SSvQVIFfWiV_Lwgm2-11" value="" style="line;strokeWidth=1;fillColor=none;align=left;verticalAlign=middle;spacingTop=-1;spacingLeft=3;spacingRight=3;rotatable=0;labelPosition=right;points=[];portConstraint=eastwest;strokeColor=inherit;" parent="bo5SSvQVIFfWiV_Lwgm2-9" vertex="1">
          <mxGeometry y="52" width="160" height="8" as="geometry" />
        </mxCell>
        <mxCell id="bo5SSvQVIFfWiV_Lwgm2-12" value="+ method(type): type" style="text;strokeColor=none;fillColor=none;align=left;verticalAlign=top;spacingLeft=4;spacingRight=4;overflow=hidden;rotatable=0;points=[[0,0.5],[1,0.5]];portConstraint=eastwest;whiteSpace=wrap;html=1;" parent="bo5SSvQVIFfWiV_Lwgm2-9" vertex="1">
          <mxGeometry y="60" width="160" height="26" as="geometry" />
        </mxCell>
        <mxCell id="bo5SSvQVIFfWiV_Lwgm2-13" value="SummaryVM" style="swimlane;fontStyle=1;align=center;verticalAlign=top;childLayout=stackLayout;horizontal=1;startSize=26;horizontalStack=0;resizeParent=1;resizeParentMax=0;resizeLast=0;collapsible=1;marginBottom=0;whiteSpace=wrap;html=1;" parent="1" vertex="1">
          <mxGeometry x="270" y="320" width="290" height="86" as="geometry" />
        </mxCell>
        <mxCell id="bo5SSvQVIFfWiV_Lwgm2-14" value="+ Facilities : observableCollection&amp;lt;Facility&amp;gt;" style="text;strokeColor=none;fillColor=none;align=left;verticalAlign=top;spacingLeft=4;spacingRight=4;overflow=hidden;rotatable=0;points=[[0,0.5],[1,0.5]];portConstraint=eastwest;whiteSpace=wrap;html=1;" parent="bo5SSvQVIFfWiV_Lwgm2-13" vertex="1">
          <mxGeometry y="26" width="290" height="26" as="geometry" />
        </mxCell>
        <mxCell id="bo5SSvQVIFfWiV_Lwgm2-15" value="" style="line;strokeWidth=1;fillColor=none;align=left;verticalAlign=middle;spacingTop=-1;spacingLeft=3;spacingRight=3;rotatable=0;labelPosition=right;points=[];portConstraint=eastwest;strokeColor=inherit;" parent="bo5SSvQVIFfWiV_Lwgm2-13" vertex="1">
          <mxGeometry y="52" width="290" height="8" as="geometry" />
        </mxCell>
        <mxCell id="bo5SSvQVIFfWiV_Lwgm2-16" value="- ShowFacilities(): observableCollection&amp;lt;Facility&amp;gt;" style="text;strokeColor=none;fillColor=none;align=left;verticalAlign=top;spacingLeft=4;spacingRight=4;overflow=hidden;rotatable=0;points=[[0,0.5],[1,0.5]];portConstraint=eastwest;whiteSpace=wrap;html=1;" parent="bo5SSvQVIFfWiV_Lwgm2-13" vertex="1">
          <mxGeometry y="60" width="290" height="26" as="geometry" />
        </mxCell>
        <mxCell id="bo5SSvQVIFfWiV_Lwgm2-25" value="LoginRepo" style="swimlane;fontStyle=1;align=center;verticalAlign=top;childLayout=stackLayout;horizontal=1;startSize=26;horizontalStack=0;resizeParent=1;resizeParentMax=0;resizeLast=0;collapsible=1;marginBottom=0;whiteSpace=wrap;html=1;" parent="1" vertex="1">
          <mxGeometry x="30" y="873" width="160" height="86" as="geometry" />
        </mxCell>
        <mxCell id="bo5SSvQVIFfWiV_Lwgm2-26" value="+ field: type" style="text;strokeColor=none;fillColor=none;align=left;verticalAlign=top;spacingLeft=4;spacingRight=4;overflow=hidden;rotatable=0;points=[[0,0.5],[1,0.5]];portConstraint=eastwest;whiteSpace=wrap;html=1;" parent="bo5SSvQVIFfWiV_Lwgm2-25" vertex="1">
          <mxGeometry y="26" width="160" height="26" as="geometry" />
        </mxCell>
        <mxCell id="bo5SSvQVIFfWiV_Lwgm2-27" value="" style="line;strokeWidth=1;fillColor=none;align=left;verticalAlign=middle;spacingTop=-1;spacingLeft=3;spacingRight=3;rotatable=0;labelPosition=right;points=[];portConstraint=eastwest;strokeColor=inherit;" parent="bo5SSvQVIFfWiV_Lwgm2-25" vertex="1">
          <mxGeometry y="52" width="160" height="8" as="geometry" />
        </mxCell>
        <mxCell id="bo5SSvQVIFfWiV_Lwgm2-28" value="+ method(type): type" style="text;strokeColor=none;fillColor=none;align=left;verticalAlign=top;spacingLeft=4;spacingRight=4;overflow=hidden;rotatable=0;points=[[0,0.5],[1,0.5]];portConstraint=eastwest;whiteSpace=wrap;html=1;" parent="bo5SSvQVIFfWiV_Lwgm2-25" vertex="1">
          <mxGeometry y="60" width="160" height="26" as="geometry" />
        </mxCell>
        <mxCell id="bo5SSvQVIFfWiV_Lwgm2-29" value="FacilityRepo" style="swimlane;fontStyle=1;align=center;verticalAlign=top;childLayout=stackLayout;horizontal=1;startSize=26;horizontalStack=0;resizeParent=1;resizeParentMax=0;resizeLast=0;collapsible=1;marginBottom=0;whiteSpace=wrap;html=1;" parent="1" vertex="1">
          <mxGeometry x="247" y="873" width="280" height="216" as="geometry" />
        </mxCell>
        <mxCell id="bo5SSvQVIFfWiV_Lwgm2-31" value="" style="line;strokeWidth=1;fillColor=none;align=left;verticalAlign=middle;spacingTop=-1;spacingLeft=3;spacingRight=3;rotatable=0;labelPosition=right;points=[];portConstraint=eastwest;strokeColor=inherit;" parent="bo5SSvQVIFfWiV_Lwgm2-29" vertex="1">
          <mxGeometry y="26" width="280" height="8" as="geometry" />
        </mxCell>
        <mxCell id="bo5SSvQVIFfWiV_Lwgm2-32" value="+ GetAll(): observableCollection&amp;lt;Facility&amp;gt;" style="text;strokeColor=none;fillColor=none;align=left;verticalAlign=top;spacingLeft=4;spacingRight=4;overflow=hidden;rotatable=0;points=[[0,0.5],[1,0.5]];portConstraint=eastwest;whiteSpace=wrap;html=1;" parent="bo5SSvQVIFfWiV_Lwgm2-29" vertex="1">
          <mxGeometry y="34" width="280" height="26" as="geometry" />
        </mxCell>
        <mxCell id="kcjF0Bzhrz3PN26yfvxr-2" value="- GetStringFromDB(): string" style="text;strokeColor=none;fillColor=none;align=left;verticalAlign=top;spacingLeft=4;spacingRight=4;overflow=hidden;rotatable=0;points=[[0,0.5],[1,0.5]];portConstraint=eastwest;whiteSpace=wrap;html=1;" parent="bo5SSvQVIFfWiV_Lwgm2-29" vertex="1">
          <mxGeometry y="60" width="280" height="26" as="geometry" />
        </mxCell>
        <mxCell id="kcjF0Bzhrz3PN26yfvxr-1" value="- FromStringToFacilityList(s: string): List&amp;lt;Facility&amp;gt;" style="text;strokeColor=none;fillColor=none;align=left;verticalAlign=top;spacingLeft=4;spacingRight=4;overflow=hidden;rotatable=0;points=[[0,0.5],[1,0.5]];portConstraint=eastwest;whiteSpace=wrap;html=1;" parent="bo5SSvQVIFfWiV_Lwgm2-29" vertex="1">
          <mxGeometry y="86" width="280" height="26" as="geometry" />
        </mxCell>
        <mxCell id="kcjF0Bzhrz3PN26yfvxr-13" value="+ GetById(Id : string): Facility&amp;nbsp;" style="text;strokeColor=none;fillColor=none;align=left;verticalAlign=top;spacingLeft=4;spacingRight=4;overflow=hidden;rotatable=0;points=[[0,0.5],[1,0.5]];portConstraint=eastwest;whiteSpace=wrap;html=1;" parent="bo5SSvQVIFfWiV_Lwgm2-29" vertex="1">
          <mxGeometry y="112" width="280" height="26" as="geometry" />
        </mxCell>
        <mxCell id="kcjF0Bzhrz3PN26yfvxr-16" value="+ Update(facility : Facility):&amp;nbsp;" style="text;strokeColor=none;fillColor=none;align=left;verticalAlign=top;spacingLeft=4;spacingRight=4;overflow=hidden;rotatable=0;points=[[0,0.5],[1,0.5]];portConstraint=eastwest;whiteSpace=wrap;html=1;" parent="bo5SSvQVIFfWiV_Lwgm2-29" vertex="1">
          <mxGeometry y="138" width="280" height="26" as="geometry" />
        </mxCell>
        <mxCell id="kcjF0Bzhrz3PN26yfvxr-15" value="+ Remove(facility : Facility):&amp;nbsp;" style="text;strokeColor=none;fillColor=none;align=left;verticalAlign=top;spacingLeft=4;spacingRight=4;overflow=hidden;rotatable=0;points=[[0,0.5],[1,0.5]];portConstraint=eastwest;whiteSpace=wrap;html=1;" parent="bo5SSvQVIFfWiV_Lwgm2-29" vertex="1">
          <mxGeometry y="164" width="280" height="26" as="geometry" />
        </mxCell>
        <mxCell id="kcjF0Bzhrz3PN26yfvxr-14" value="+ Add(facility : Facility):&amp;nbsp;" style="text;strokeColor=none;fillColor=none;align=left;verticalAlign=top;spacingLeft=4;spacingRight=4;overflow=hidden;rotatable=0;points=[[0,0.5],[1,0.5]];portConstraint=eastwest;whiteSpace=wrap;html=1;" parent="bo5SSvQVIFfWiV_Lwgm2-29" vertex="1">
          <mxGeometry y="190" width="280" height="26" as="geometry" />
        </mxCell>
        <mxCell id="bo5SSvQVIFfWiV_Lwgm2-46" value="" style="swimlane;fontStyle=1;align=center;verticalAlign=top;childLayout=stackLayout;horizontal=1;startSize=26;horizontalStack=0;resizeParent=1;resizeParentMax=0;resizeLast=0;collapsible=1;marginBottom=0;whiteSpace=wrap;html=1;" parent="1" vertex="1">
          <mxGeometry x="1040" y="40" width="160" height="86" as="geometry" />
        </mxCell>
        <mxCell id="bo5SSvQVIFfWiV_Lwgm2-47" value="+ field: type" style="text;strokeColor=none;fillColor=none;align=left;verticalAlign=top;spacingLeft=4;spacingRight=4;overflow=hidden;rotatable=0;points=[[0,0.5],[1,0.5]];portConstraint=eastwest;whiteSpace=wrap;html=1;" parent="bo5SSvQVIFfWiV_Lwgm2-46" vertex="1">
          <mxGeometry y="26" width="160" height="26" as="geometry" />
        </mxCell>
        <mxCell id="bo5SSvQVIFfWiV_Lwgm2-48" value="" style="line;strokeWidth=1;fillColor=none;align=left;verticalAlign=middle;spacingTop=-1;spacingLeft=3;spacingRight=3;rotatable=0;labelPosition=right;points=[];portConstraint=eastwest;strokeColor=inherit;" parent="bo5SSvQVIFfWiV_Lwgm2-46" vertex="1">
          <mxGeometry y="52" width="160" height="8" as="geometry" />
        </mxCell>
        <mxCell id="bo5SSvQVIFfWiV_Lwgm2-49" value="+ method(type): type" style="text;strokeColor=none;fillColor=none;align=left;verticalAlign=top;spacingLeft=4;spacingRight=4;overflow=hidden;rotatable=0;points=[[0,0.5],[1,0.5]];portConstraint=eastwest;whiteSpace=wrap;html=1;" parent="bo5SSvQVIFfWiV_Lwgm2-46" vertex="1">
          <mxGeometry y="60" width="160" height="26" as="geometry" />
        </mxCell>
        <mxCell id="bo5SSvQVIFfWiV_Lwgm2-50" value="" style="swimlane;fontStyle=1;align=center;verticalAlign=top;childLayout=stackLayout;horizontal=1;startSize=26;horizontalStack=0;resizeParent=1;resizeParentMax=0;resizeLast=0;collapsible=1;marginBottom=0;whiteSpace=wrap;html=1;" parent="1" vertex="1">
          <mxGeometry x="827" y="320" width="160" height="86" as="geometry" />
        </mxCell>
        <mxCell id="bo5SSvQVIFfWiV_Lwgm2-51" value="+ field: type" style="text;strokeColor=none;fillColor=none;align=left;verticalAlign=top;spacingLeft=4;spacingRight=4;overflow=hidden;rotatable=0;points=[[0,0.5],[1,0.5]];portConstraint=eastwest;whiteSpace=wrap;html=1;" parent="bo5SSvQVIFfWiV_Lwgm2-50" vertex="1">
          <mxGeometry y="26" width="160" height="26" as="geometry" />
        </mxCell>
        <mxCell id="bo5SSvQVIFfWiV_Lwgm2-52" value="" style="line;strokeWidth=1;fillColor=none;align=left;verticalAlign=middle;spacingTop=-1;spacingLeft=3;spacingRight=3;rotatable=0;labelPosition=right;points=[];portConstraint=eastwest;strokeColor=inherit;" parent="bo5SSvQVIFfWiV_Lwgm2-50" vertex="1">
          <mxGeometry y="52" width="160" height="8" as="geometry" />
        </mxCell>
        <mxCell id="bo5SSvQVIFfWiV_Lwgm2-53" value="+ method(type): type" style="text;strokeColor=none;fillColor=none;align=left;verticalAlign=top;spacingLeft=4;spacingRight=4;overflow=hidden;rotatable=0;points=[[0,0.5],[1,0.5]];portConstraint=eastwest;whiteSpace=wrap;html=1;" parent="bo5SSvQVIFfWiV_Lwgm2-50" vertex="1">
          <mxGeometry y="60" width="160" height="26" as="geometry" />
        </mxCell>
        <mxCell id="bo5SSvQVIFfWiV_Lwgm2-54" value="Facility" style="swimlane;fontStyle=1;align=center;verticalAlign=top;childLayout=stackLayout;horizontal=1;startSize=26;horizontalStack=0;resizeParent=1;resizeParentMax=0;resizeLast=0;collapsible=1;marginBottom=0;whiteSpace=wrap;html=1;" parent="1" vertex="1">
          <mxGeometry x="247" y="1168" width="270" height="242" as="geometry" />
        </mxCell>
        <mxCell id="bo5SSvQVIFfWiV_Lwgm2-55" value="+ Name: string" style="text;strokeColor=none;fillColor=none;align=left;verticalAlign=top;spacingLeft=4;spacingRight=4;overflow=hidden;rotatable=0;points=[[0,0.5],[1,0.5]];portConstraint=eastwest;whiteSpace=wrap;html=1;" parent="bo5SSvQVIFfWiV_Lwgm2-54" vertex="1">
          <mxGeometry y="26" width="270" height="26" as="geometry" />
        </mxCell>
        <mxCell id="kcjF0Bzhrz3PN26yfvxr-39" value="+ NumberOfIncidents: int" style="text;strokeColor=none;fillColor=none;align=left;verticalAlign=top;spacingLeft=4;spacingRight=4;overflow=hidden;rotatable=0;points=[[0,0.5],[1,0.5]];portConstraint=eastwest;whiteSpace=wrap;html=1;" parent="bo5SSvQVIFfWiV_Lwgm2-54" vertex="1">
          <mxGeometry y="52" width="270" height="26" as="geometry" />
        </mxCell>
        <mxCell id="kcjF0Bzhrz3PN26yfvxr-40" value="+ TotalOverflow: int" style="text;strokeColor=none;fillColor=none;align=left;verticalAlign=top;spacingLeft=4;spacingRight=4;overflow=hidden;rotatable=0;points=[[0,0.5],[1,0.5]];portConstraint=eastwest;whiteSpace=wrap;html=1;" parent="bo5SSvQVIFfWiV_Lwgm2-54" vertex="1">
          <mxGeometry y="78" width="270" height="26" as="geometry" />
        </mxCell>
        <mxCell id="bo5SSvQVIFfWiV_Lwgm2-57" value="+ Restrictions: Restriction *******" style="text;strokeColor=none;fillColor=none;align=left;verticalAlign=top;spacingLeft=4;spacingRight=4;overflow=hidden;rotatable=0;points=[[0,0.5],[1,0.5]];portConstraint=eastwest;whiteSpace=wrap;html=1;" parent="bo5SSvQVIFfWiV_Lwgm2-54" vertex="1">
          <mxGeometry y="104" width="270" height="26" as="geometry" />
        </mxCell>
        <mxCell id="kcjF0Bzhrz3PN26yfvxr-45" value="+ UDL-Number: string" style="text;strokeColor=none;fillColor=none;align=left;verticalAlign=top;spacingLeft=4;spacingRight=4;overflow=hidden;rotatable=0;points=[[0,0.5],[1,0.5]];portConstraint=eastwest;whiteSpace=wrap;html=1;" parent="bo5SSvQVIFfWiV_Lwgm2-54" vertex="1">
          <mxGeometry y="130" width="270" height="26" as="geometry" />
        </mxCell>
        <mxCell id="kcjF0Bzhrz3PN26yfvxr-76" value="+ OB-number: string" style="text;strokeColor=none;fillColor=none;align=left;verticalAlign=top;spacingLeft=4;spacingRight=4;overflow=hidden;rotatable=0;points=[[0,0.5],[1,0.5]];portConstraint=eastwest;whiteSpace=wrap;html=1;" parent="bo5SSvQVIFfWiV_Lwgm2-54" vertex="1">
          <mxGeometry y="156" width="270" height="26" as="geometry" />
        </mxCell>
        <mxCell id="kcjF0Bzhrz3PN26yfvxr-78" value="+ System: string" style="text;strokeColor=none;fillColor=none;align=left;verticalAlign=top;spacingLeft=4;spacingRight=4;overflow=hidden;rotatable=0;points=[[0,0.5],[1,0.5]];portConstraint=eastwest;whiteSpace=wrap;html=1;" parent="bo5SSvQVIFfWiV_Lwgm2-54" vertex="1">
          <mxGeometry y="182" width="270" height="26" as="geometry" />
        </mxCell>
        <mxCell id="kcjF0Bzhrz3PN26yfvxr-81" value="+ MinimumPoolSize: string" style="text;strokeColor=none;fillColor=none;align=left;verticalAlign=top;spacingLeft=4;spacingRight=4;overflow=hidden;rotatable=0;points=[[0,0.5],[1,0.5]];portConstraint=eastwest;whiteSpace=wrap;html=1;" parent="bo5SSvQVIFfWiV_Lwgm2-54" vertex="1">
          <mxGeometry y="208" width="270" height="26" as="geometry" />
        </mxCell>
        <mxCell id="bo5SSvQVIFfWiV_Lwgm2-56" value="" style="line;strokeWidth=1;fillColor=none;align=left;verticalAlign=middle;spacingTop=-1;spacingLeft=3;spacingRight=3;rotatable=0;labelPosition=right;points=[];portConstraint=eastwest;strokeColor=inherit;" parent="bo5SSvQVIFfWiV_Lwgm2-54" vertex="1">
          <mxGeometry y="234" width="270" height="8" as="geometry" />
        </mxCell>
        <mxCell id="bo5SSvQVIFfWiV_Lwgm2-63" value="View" style="shape=umlFrame;whiteSpace=wrap;html=1;pointerEvents=0;width=80;height=30;" parent="1" vertex="1">
          <mxGeometry width="1640" height="280" as="geometry" />
        </mxCell>
        <mxCell id="bo5SSvQVIFfWiV_Lwgm2-64" value="ViewModel" style="shape=umlFrame;whiteSpace=wrap;html=1;pointerEvents=0;width=80;height=30;" parent="1" vertex="1">
          <mxGeometry y="280" width="1640" height="220" as="geometry" />
        </mxCell>
        <mxCell id="bo5SSvQVIFfWiV_Lwgm2-65" value="Model" style="shape=umlFrame;whiteSpace=wrap;html=1;pointerEvents=0;width=80;height=30;" parent="1" vertex="1">
          <mxGeometry y="500" width="1640" height="980" as="geometry" />
        </mxCell>
        <mxCell id="IFbbEQ-6FJ6GLovj2k8C-1" value="Restriction" style="swimlane;fontStyle=1;align=center;verticalAlign=top;childLayout=stackLayout;horizontal=1;startSize=26;horizontalStack=0;resizeParent=1;resizeParentMax=0;resizeLast=0;collapsible=1;marginBottom=0;whiteSpace=wrap;html=1;" parent="1" vertex="1">
          <mxGeometry x="957" y="1168" width="223" height="242" as="geometry" />
        </mxCell>
        <mxCell id="kcjF0Bzhrz3PN26yfvxr-52" value="+ endDate: dateTime&lt;span style=&quot;white-space: pre;&quot;&gt;&#x9;&lt;/span&gt;" style="text;strokeColor=none;fillColor=none;align=left;verticalAlign=top;spacingLeft=4;spacingRight=4;overflow=hidden;rotatable=0;points=[[0,0.5],[1,0.5]];portConstraint=eastwest;whiteSpace=wrap;html=1;" parent="IFbbEQ-6FJ6GLovj2k8C-1" vertex="1">
          <mxGeometry y="26" width="223" height="26" as="geometry" />
        </mxCell>
        <mxCell id="kcjF0Bzhrz3PN26yfvxr-51" value="+ startDate: dateTime" style="text;strokeColor=none;fillColor=none;align=left;verticalAlign=top;spacingLeft=4;spacingRight=4;overflow=hidden;rotatable=0;points=[[0,0.5],[1,0.5]];portConstraint=eastwest;whiteSpace=wrap;html=1;" parent="IFbbEQ-6FJ6GLovj2k8C-1" vertex="1">
          <mxGeometry y="52" width="223" height="26" as="geometry" />
        </mxCell>
        <mxCell id="kcjF0Bzhrz3PN26yfvxr-49" value="+ AllowedOverflowVolume: int" style="text;strokeColor=none;fillColor=none;align=left;verticalAlign=top;spacingLeft=4;spacingRight=4;overflow=hidden;rotatable=0;points=[[0,0.5],[1,0.5]];portConstraint=eastwest;whiteSpace=wrap;html=1;" parent="IFbbEQ-6FJ6GLovj2k8C-1" vertex="1">
          <mxGeometry y="78" width="223" height="26" as="geometry" />
        </mxCell>
        <mxCell id="kcjF0Bzhrz3PN26yfvxr-48" value="+ AllowedIncidents: int" style="text;strokeColor=none;fillColor=none;align=left;verticalAlign=top;spacingLeft=4;spacingRight=4;overflow=hidden;rotatable=0;points=[[0,0.5],[1,0.5]];portConstraint=eastwest;whiteSpace=wrap;html=1;" parent="IFbbEQ-6FJ6GLovj2k8C-1" vertex="1">
          <mxGeometry y="104" width="223" height="26" as="geometry" />
        </mxCell>
        <mxCell id="kcjF0Bzhrz3PN26yfvxr-53" value="+ EquipmentRestriction: string" style="text;strokeColor=none;fillColor=none;align=left;verticalAlign=top;spacingLeft=4;spacingRight=4;overflow=hidden;rotatable=0;points=[[0,0.5],[1,0.5]];portConstraint=eastwest;whiteSpace=wrap;html=1;" parent="IFbbEQ-6FJ6GLovj2k8C-1" vertex="1">
          <mxGeometry y="130" width="223" height="26" as="geometry" />
        </mxCell>
        <mxCell id="kcjF0Bzhrz3PN26yfvxr-56" value="+ AdditionalRestriction: string" style="text;strokeColor=none;fillColor=none;align=left;verticalAlign=top;spacingLeft=4;spacingRight=4;overflow=hidden;rotatable=0;points=[[0,0.5],[1,0.5]];portConstraint=eastwest;whiteSpace=wrap;html=1;" parent="IFbbEQ-6FJ6GLovj2k8C-1" vertex="1">
          <mxGeometry y="156" width="223" height="26" as="geometry" />
        </mxCell>
        <mxCell id="kcjF0Bzhrz3PN26yfvxr-55" value="+ MaintenanceRestriction: string" style="text;strokeColor=none;fillColor=none;align=left;verticalAlign=top;spacingLeft=4;spacingRight=4;overflow=hidden;rotatable=0;points=[[0,0.5],[1,0.5]];portConstraint=eastwest;whiteSpace=wrap;html=1;" parent="IFbbEQ-6FJ6GLovj2k8C-1" vertex="1">
          <mxGeometry y="182" width="223" height="26" as="geometry" />
        </mxCell>
        <mxCell id="kcjF0Bzhrz3PN26yfvxr-57" value="+ MeasurementRestriction: string" style="text;strokeColor=none;fillColor=none;align=left;verticalAlign=top;spacingLeft=4;spacingRight=4;overflow=hidden;rotatable=0;points=[[0,0.5],[1,0.5]];portConstraint=eastwest;whiteSpace=wrap;html=1;" parent="IFbbEQ-6FJ6GLovj2k8C-1" vertex="1">
          <mxGeometry y="208" width="223" height="26" as="geometry" />
        </mxCell>
        <mxCell id="IFbbEQ-6FJ6GLovj2k8C-3" value="" style="line;strokeWidth=1;fillColor=none;align=left;verticalAlign=middle;spacingTop=-1;spacingLeft=3;spacingRight=3;rotatable=0;labelPosition=right;points=[];portConstraint=eastwest;strokeColor=inherit;" parent="IFbbEQ-6FJ6GLovj2k8C-1" vertex="1">
          <mxGeometry y="234" width="223" height="8" as="geometry" />
        </mxCell>
        <mxCell id="IFbbEQ-6FJ6GLovj2k8C-5" value="Overflow" style="swimlane;fontStyle=1;align=center;verticalAlign=top;childLayout=stackLayout;horizontal=1;startSize=26;horizontalStack=0;resizeParent=1;resizeParentMax=0;resizeLast=0;collapsible=1;marginBottom=0;whiteSpace=wrap;html=1;" parent="1" vertex="1">
          <mxGeometry x="584" y="1168" width="303" height="138" as="geometry" />
        </mxCell>
        <mxCell id="IFbbEQ-6FJ6GLovj2k8C-6" value="+ StartTime: dateTime" style="text;strokeColor=none;fillColor=none;align=left;verticalAlign=top;spacingLeft=4;spacingRight=4;overflow=hidden;rotatable=0;points=[[0,0.5],[1,0.5]];portConstraint=eastwest;whiteSpace=wrap;html=1;" parent="IFbbEQ-6FJ6GLovj2k8C-5" vertex="1">
          <mxGeometry y="26" width="303" height="26" as="geometry" />
        </mxCell>
        <mxCell id="IFbbEQ-6FJ6GLovj2k8C-7" value="" style="line;strokeWidth=1;fillColor=none;align=left;verticalAlign=middle;spacingTop=-1;spacingLeft=3;spacingRight=3;rotatable=0;labelPosition=right;points=[];portConstraint=eastwest;strokeColor=inherit;" parent="IFbbEQ-6FJ6GLovj2k8C-5" vertex="1">
          <mxGeometry y="52" width="303" height="8" as="geometry" />
        </mxCell>
        <mxCell id="kcjF0Bzhrz3PN26yfvxr-82" value="+ OverflowVolume: int" style="text;strokeColor=none;fillColor=none;align=left;verticalAlign=top;spacingLeft=4;spacingRight=4;overflow=hidden;rotatable=0;points=[[0,0.5],[1,0.5]];portConstraint=eastwest;whiteSpace=wrap;html=1;" parent="IFbbEQ-6FJ6GLovj2k8C-5" vertex="1">
          <mxGeometry y="60" width="303" height="26" as="geometry" />
        </mxCell>
        <mxCell id="kcjF0Bzhrz3PN26yfvxr-83" value="+ Duration: timeSpan" style="text;strokeColor=none;fillColor=none;align=left;verticalAlign=top;spacingLeft=4;spacingRight=4;overflow=hidden;rotatable=0;points=[[0,0.5],[1,0.5]];portConstraint=eastwest;whiteSpace=wrap;html=1;" parent="IFbbEQ-6FJ6GLovj2k8C-5" vertex="1">
          <mxGeometry y="86" width="303" height="26" as="geometry" />
        </mxCell>
        <mxCell id="IFbbEQ-6FJ6GLovj2k8C-8" value="+ method(type): type" style="text;strokeColor=none;fillColor=none;align=left;verticalAlign=top;spacingLeft=4;spacingRight=4;overflow=hidden;rotatable=0;points=[[0,0.5],[1,0.5]];portConstraint=eastwest;whiteSpace=wrap;html=1;" parent="IFbbEQ-6FJ6GLovj2k8C-5" vertex="1">
          <mxGeometry y="112" width="303" height="26" as="geometry" />
        </mxCell>
        <mxCell id="IFbbEQ-6FJ6GLovj2k8C-9" value="Incident" style="swimlane;fontStyle=1;align=center;verticalAlign=top;childLayout=stackLayout;horizontal=1;startSize=26;horizontalStack=0;resizeParent=1;resizeParentMax=0;resizeLast=0;collapsible=1;marginBottom=0;whiteSpace=wrap;html=1;" parent="1" vertex="1">
          <mxGeometry x="1299" y="1171" width="160" height="112" as="geometry" />
        </mxCell>
        <mxCell id="IFbbEQ-6FJ6GLovj2k8C-10" value="+ StartTime: dateTime" style="text;strokeColor=none;fillColor=none;align=left;verticalAlign=top;spacingLeft=4;spacingRight=4;overflow=hidden;rotatable=0;points=[[0,0.5],[1,0.5]];portConstraint=eastwest;whiteSpace=wrap;html=1;" parent="IFbbEQ-6FJ6GLovj2k8C-9" vertex="1">
          <mxGeometry y="26" width="160" height="26" as="geometry" />
        </mxCell>
        <mxCell id="kcjF0Bzhrz3PN26yfvxr-84" value="+ OverflowVolume: int" style="text;strokeColor=none;fillColor=none;align=left;verticalAlign=top;spacingLeft=4;spacingRight=4;overflow=hidden;rotatable=0;points=[[0,0.5],[1,0.5]];portConstraint=eastwest;whiteSpace=wrap;html=1;" parent="IFbbEQ-6FJ6GLovj2k8C-9" vertex="1">
          <mxGeometry y="52" width="160" height="26" as="geometry" />
        </mxCell>
        <mxCell id="kcjF0Bzhrz3PN26yfvxr-85" value="+ EndTime: dateTime" style="text;strokeColor=none;fillColor=none;align=left;verticalAlign=top;spacingLeft=4;spacingRight=4;overflow=hidden;rotatable=0;points=[[0,0.5],[1,0.5]];portConstraint=eastwest;whiteSpace=wrap;html=1;" parent="IFbbEQ-6FJ6GLovj2k8C-9" vertex="1">
          <mxGeometry y="78" width="160" height="26" as="geometry" />
        </mxCell>
        <mxCell id="IFbbEQ-6FJ6GLovj2k8C-11" value="" style="line;strokeWidth=1;fillColor=none;align=left;verticalAlign=middle;spacingTop=-1;spacingLeft=3;spacingRight=3;rotatable=0;labelPosition=right;points=[];portConstraint=eastwest;strokeColor=inherit;" parent="IFbbEQ-6FJ6GLovj2k8C-9" vertex="1">
          <mxGeometry y="104" width="160" height="8" as="geometry" />
        </mxCell>
        <mxCell id="IFbbEQ-6FJ6GLovj2k8C-13" value="IRepository" style="swimlane;fontStyle=1;align=center;verticalAlign=top;childLayout=stackLayout;horizontal=1;startSize=26;horizontalStack=0;resizeParent=1;resizeParentMax=0;resizeLast=0;collapsible=1;marginBottom=0;whiteSpace=wrap;html=1;" parent="1" vertex="1">
          <mxGeometry x="1050" y="530" width="240" height="242" as="geometry" />
        </mxCell>
        <mxCell id="IFbbEQ-6FJ6GLovj2k8C-15" value="" style="line;strokeWidth=1;fillColor=none;align=left;verticalAlign=middle;spacingTop=-1;spacingLeft=3;spacingRight=3;rotatable=0;labelPosition=right;points=[];portConstraint=eastwest;strokeColor=inherit;" parent="IFbbEQ-6FJ6GLovj2k8C-13" vertex="1">
          <mxGeometry y="26" width="240" height="8" as="geometry" />
        </mxCell>
        <mxCell id="IFbbEQ-6FJ6GLovj2k8C-16" value="+ GetAll(): observableCollection&amp;lt;T&amp;gt;" style="text;strokeColor=none;fillColor=none;align=left;verticalAlign=top;spacingLeft=4;spacingRight=4;overflow=hidden;rotatable=0;points=[[0,0.5],[1,0.5]];portConstraint=eastwest;whiteSpace=wrap;html=1;" parent="IFbbEQ-6FJ6GLovj2k8C-13" vertex="1">
          <mxGeometry y="34" width="240" height="26" as="geometry" />
        </mxCell>
        <mxCell id="kcjF0Bzhrz3PN26yfvxr-6" value="- GetStringFromDB(): string" style="text;strokeColor=none;fillColor=none;align=left;verticalAlign=top;spacingLeft=4;spacingRight=4;overflow=hidden;rotatable=0;points=[[0,0.5],[1,0.5]];portConstraint=eastwest;whiteSpace=wrap;html=1;" parent="IFbbEQ-6FJ6GLovj2k8C-13" vertex="1">
          <mxGeometry y="60" width="240" height="26" as="geometry" />
        </mxCell>
        <mxCell id="kcjF0Bzhrz3PN26yfvxr-5" value="- FromStringToType(): List&amp;lt;T&amp;gt;" style="text;strokeColor=none;fillColor=none;align=left;verticalAlign=top;spacingLeft=4;spacingRight=4;overflow=hidden;rotatable=0;points=[[0,0.5],[1,0.5]];portConstraint=eastwest;whiteSpace=wrap;html=1;" parent="IFbbEQ-6FJ6GLovj2k8C-13" vertex="1">
          <mxGeometry y="86" width="240" height="26" as="geometry" />
        </mxCell>
        <mxCell id="kcjF0Bzhrz3PN26yfvxr-7" value="+ GetById(s : string): T" style="text;strokeColor=none;fillColor=none;align=left;verticalAlign=top;spacingLeft=4;spacingRight=4;overflow=hidden;rotatable=0;points=[[0,0.5],[1,0.5]];portConstraint=eastwest;whiteSpace=wrap;html=1;" parent="IFbbEQ-6FJ6GLovj2k8C-13" vertex="1">
          <mxGeometry y="112" width="240" height="26" as="geometry" />
        </mxCell>
        <mxCell id="kcjF0Bzhrz3PN26yfvxr-88" value="+ GetById(s : string): T" style="text;strokeColor=none;fillColor=none;align=left;verticalAlign=top;spacingLeft=4;spacingRight=4;overflow=hidden;rotatable=0;points=[[0,0.5],[1,0.5]];portConstraint=eastwest;whiteSpace=wrap;html=1;" parent="IFbbEQ-6FJ6GLovj2k8C-13" vertex="1">
          <mxGeometry y="138" width="240" height="26" as="geometry" />
        </mxCell>
        <mxCell id="kcjF0Bzhrz3PN26yfvxr-11" value="+ Add(entity : T):" style="text;strokeColor=none;fillColor=none;align=left;verticalAlign=top;spacingLeft=4;spacingRight=4;overflow=hidden;rotatable=0;points=[[0,0.5],[1,0.5]];portConstraint=eastwest;whiteSpace=wrap;html=1;" parent="IFbbEQ-6FJ6GLovj2k8C-13" vertex="1">
          <mxGeometry y="164" width="240" height="26" as="geometry" />
        </mxCell>
        <mxCell id="kcjF0Bzhrz3PN26yfvxr-12" value="+ Remove(entity&amp;nbsp;: T):" style="text;strokeColor=none;fillColor=none;align=left;verticalAlign=top;spacingLeft=4;spacingRight=4;overflow=hidden;rotatable=0;points=[[0,0.5],[1,0.5]];portConstraint=eastwest;whiteSpace=wrap;html=1;" parent="IFbbEQ-6FJ6GLovj2k8C-13" vertex="1">
          <mxGeometry y="190" width="240" height="26" as="geometry" />
        </mxCell>
        <mxCell id="kcjF0Bzhrz3PN26yfvxr-10" value="+ Update(entity&amp;nbsp;: T):" style="text;strokeColor=none;fillColor=none;align=left;verticalAlign=top;spacingLeft=4;spacingRight=4;overflow=hidden;rotatable=0;points=[[0,0.5],[1,0.5]];portConstraint=eastwest;whiteSpace=wrap;html=1;" parent="IFbbEQ-6FJ6GLovj2k8C-13" vertex="1">
          <mxGeometry y="216" width="240" height="26" as="geometry" />
        </mxCell>
        <mxCell id="IFbbEQ-6FJ6GLovj2k8C-18" value="" style="swimlane;fontStyle=1;align=center;verticalAlign=top;childLayout=stackLayout;horizontal=1;startSize=26;horizontalStack=0;resizeParent=1;resizeParentMax=0;resizeLast=0;collapsible=1;marginBottom=0;whiteSpace=wrap;html=1;" parent="1" vertex="1">
          <mxGeometry x="590" y="320" width="160" height="86" as="geometry" />
        </mxCell>
        <mxCell id="IFbbEQ-6FJ6GLovj2k8C-19" value="+ field: type" style="text;strokeColor=none;fillColor=none;align=left;verticalAlign=top;spacingLeft=4;spacingRight=4;overflow=hidden;rotatable=0;points=[[0,0.5],[1,0.5]];portConstraint=eastwest;whiteSpace=wrap;html=1;" parent="IFbbEQ-6FJ6GLovj2k8C-18" vertex="1">
          <mxGeometry y="26" width="160" height="26" as="geometry" />
        </mxCell>
        <mxCell id="IFbbEQ-6FJ6GLovj2k8C-20" value="" style="line;strokeWidth=1;fillColor=none;align=left;verticalAlign=middle;spacingTop=-1;spacingLeft=3;spacingRight=3;rotatable=0;labelPosition=right;points=[];portConstraint=eastwest;strokeColor=inherit;" parent="IFbbEQ-6FJ6GLovj2k8C-18" vertex="1">
          <mxGeometry y="52" width="160" height="8" as="geometry" />
        </mxCell>
        <mxCell id="IFbbEQ-6FJ6GLovj2k8C-21" value="+ method(type): type" style="text;strokeColor=none;fillColor=none;align=left;verticalAlign=top;spacingLeft=4;spacingRight=4;overflow=hidden;rotatable=0;points=[[0,0.5],[1,0.5]];portConstraint=eastwest;whiteSpace=wrap;html=1;" parent="IFbbEQ-6FJ6GLovj2k8C-18" vertex="1">
          <mxGeometry y="60" width="160" height="26" as="geometry" />
        </mxCell>
        <mxCell id="IFbbEQ-6FJ6GLovj2k8C-30" value="OverflowRepo" style="swimlane;fontStyle=1;align=center;verticalAlign=top;childLayout=stackLayout;horizontal=1;startSize=26;horizontalStack=0;resizeParent=1;resizeParentMax=0;resizeLast=0;collapsible=1;marginBottom=0;whiteSpace=wrap;html=1;" parent="1" vertex="1">
          <mxGeometry x="584" y="873" width="310" height="242" as="geometry" />
        </mxCell>
        <mxCell id="IFbbEQ-6FJ6GLovj2k8C-31" value="+ field: type" style="text;strokeColor=none;fillColor=none;align=left;verticalAlign=top;spacingLeft=4;spacingRight=4;overflow=hidden;rotatable=0;points=[[0,0.5],[1,0.5]];portConstraint=eastwest;whiteSpace=wrap;html=1;" parent="IFbbEQ-6FJ6GLovj2k8C-30" vertex="1">
          <mxGeometry y="26" width="310" height="26" as="geometry" />
        </mxCell>
        <mxCell id="IFbbEQ-6FJ6GLovj2k8C-32" value="" style="line;strokeWidth=1;fillColor=none;align=left;verticalAlign=middle;spacingTop=-1;spacingLeft=3;spacingRight=3;rotatable=0;labelPosition=right;points=[];portConstraint=eastwest;strokeColor=inherit;" parent="IFbbEQ-6FJ6GLovj2k8C-30" vertex="1">
          <mxGeometry y="52" width="310" height="8" as="geometry" />
        </mxCell>
        <mxCell id="kcjF0Bzhrz3PN26yfvxr-17" value="+ GetAll(): observableCollection&amp;lt;Facility&amp;gt;" style="text;strokeColor=none;fillColor=none;align=left;verticalAlign=top;spacingLeft=4;spacingRight=4;overflow=hidden;rotatable=0;points=[[0,0.5],[1,0.5]];portConstraint=eastwest;whiteSpace=wrap;html=1;" parent="IFbbEQ-6FJ6GLovj2k8C-30" vertex="1">
          <mxGeometry y="60" width="310" height="26" as="geometry" />
        </mxCell>
        <mxCell id="kcjF0Bzhrz3PN26yfvxr-19" value="- FromStringToFacilityList(s: string): List&amp;lt;Facility&amp;gt;" style="text;strokeColor=none;fillColor=none;align=left;verticalAlign=top;spacingLeft=4;spacingRight=4;overflow=hidden;rotatable=0;points=[[0,0.5],[1,0.5]];portConstraint=eastwest;whiteSpace=wrap;html=1;" parent="IFbbEQ-6FJ6GLovj2k8C-30" vertex="1">
          <mxGeometry y="86" width="310" height="26" as="geometry" />
        </mxCell>
        <mxCell id="kcjF0Bzhrz3PN26yfvxr-18" value="- GetStringFromDB(): string" style="text;strokeColor=none;fillColor=none;align=left;verticalAlign=top;spacingLeft=4;spacingRight=4;overflow=hidden;rotatable=0;points=[[0,0.5],[1,0.5]];portConstraint=eastwest;whiteSpace=wrap;html=1;" parent="IFbbEQ-6FJ6GLovj2k8C-30" vertex="1">
          <mxGeometry y="112" width="310" height="26" as="geometry" />
        </mxCell>
        <mxCell id="kcjF0Bzhrz3PN26yfvxr-23" value="+ Add(facility : Facility):&amp;nbsp;" style="text;strokeColor=none;fillColor=none;align=left;verticalAlign=top;spacingLeft=4;spacingRight=4;overflow=hidden;rotatable=0;points=[[0,0.5],[1,0.5]];portConstraint=eastwest;whiteSpace=wrap;html=1;" parent="IFbbEQ-6FJ6GLovj2k8C-30" vertex="1">
          <mxGeometry y="138" width="310" height="26" as="geometry" />
        </mxCell>
        <mxCell id="kcjF0Bzhrz3PN26yfvxr-22" value="+ Remove(facility : Facility):&amp;nbsp;" style="text;strokeColor=none;fillColor=none;align=left;verticalAlign=top;spacingLeft=4;spacingRight=4;overflow=hidden;rotatable=0;points=[[0,0.5],[1,0.5]];portConstraint=eastwest;whiteSpace=wrap;html=1;" parent="IFbbEQ-6FJ6GLovj2k8C-30" vertex="1">
          <mxGeometry y="164" width="310" height="26" as="geometry" />
        </mxCell>
        <mxCell id="kcjF0Bzhrz3PN26yfvxr-21" value="+ Update(facility : Facility):&amp;nbsp;" style="text;strokeColor=none;fillColor=none;align=left;verticalAlign=top;spacingLeft=4;spacingRight=4;overflow=hidden;rotatable=0;points=[[0,0.5],[1,0.5]];portConstraint=eastwest;whiteSpace=wrap;html=1;" parent="IFbbEQ-6FJ6GLovj2k8C-30" vertex="1">
          <mxGeometry y="190" width="310" height="26" as="geometry" />
        </mxCell>
        <mxCell id="kcjF0Bzhrz3PN26yfvxr-20" value="+ GetById(Id : string): Facility&amp;nbsp;" style="text;strokeColor=none;fillColor=none;align=left;verticalAlign=top;spacingLeft=4;spacingRight=4;overflow=hidden;rotatable=0;points=[[0,0.5],[1,0.5]];portConstraint=eastwest;whiteSpace=wrap;html=1;" parent="IFbbEQ-6FJ6GLovj2k8C-30" vertex="1">
          <mxGeometry y="216" width="310" height="26" as="geometry" />
        </mxCell>
        <mxCell id="IFbbEQ-6FJ6GLovj2k8C-34" value="RestrictionRepo" style="swimlane;fontStyle=1;align=center;verticalAlign=top;childLayout=stackLayout;horizontal=1;startSize=26;horizontalStack=0;resizeParent=1;resizeParentMax=0;resizeLast=0;collapsible=1;marginBottom=0;whiteSpace=wrap;html=1;" parent="1" vertex="1">
          <mxGeometry x="957" y="873" width="310" height="242" as="geometry" />
        </mxCell>
        <mxCell id="IFbbEQ-6FJ6GLovj2k8C-35" value="+ field: type" style="text;strokeColor=none;fillColor=none;align=left;verticalAlign=top;spacingLeft=4;spacingRight=4;overflow=hidden;rotatable=0;points=[[0,0.5],[1,0.5]];portConstraint=eastwest;whiteSpace=wrap;html=1;" parent="IFbbEQ-6FJ6GLovj2k8C-34" vertex="1">
          <mxGeometry y="26" width="310" height="26" as="geometry" />
        </mxCell>
        <mxCell id="IFbbEQ-6FJ6GLovj2k8C-36" value="" style="line;strokeWidth=1;fillColor=none;align=left;verticalAlign=middle;spacingTop=-1;spacingLeft=3;spacingRight=3;rotatable=0;labelPosition=right;points=[];portConstraint=eastwest;strokeColor=inherit;" parent="IFbbEQ-6FJ6GLovj2k8C-34" vertex="1">
          <mxGeometry y="52" width="310" height="8" as="geometry" />
        </mxCell>
        <mxCell id="kcjF0Bzhrz3PN26yfvxr-24" value="+ GetAll(): observableCollection&amp;lt;Facility&amp;gt;" style="text;strokeColor=none;fillColor=none;align=left;verticalAlign=top;spacingLeft=4;spacingRight=4;overflow=hidden;rotatable=0;points=[[0,0.5],[1,0.5]];portConstraint=eastwest;whiteSpace=wrap;html=1;" parent="IFbbEQ-6FJ6GLovj2k8C-34" vertex="1">
          <mxGeometry y="60" width="310" height="26" as="geometry" />
        </mxCell>
        <mxCell id="kcjF0Bzhrz3PN26yfvxr-26" value="- FromStringToFacilityList(s: string): List&amp;lt;Facility&amp;gt;" style="text;strokeColor=none;fillColor=none;align=left;verticalAlign=top;spacingLeft=4;spacingRight=4;overflow=hidden;rotatable=0;points=[[0,0.5],[1,0.5]];portConstraint=eastwest;whiteSpace=wrap;html=1;" parent="IFbbEQ-6FJ6GLovj2k8C-34" vertex="1">
          <mxGeometry y="86" width="310" height="26" as="geometry" />
        </mxCell>
        <mxCell id="kcjF0Bzhrz3PN26yfvxr-25" value="- GetStringFromDB(): string" style="text;strokeColor=none;fillColor=none;align=left;verticalAlign=top;spacingLeft=4;spacingRight=4;overflow=hidden;rotatable=0;points=[[0,0.5],[1,0.5]];portConstraint=eastwest;whiteSpace=wrap;html=1;" parent="IFbbEQ-6FJ6GLovj2k8C-34" vertex="1">
          <mxGeometry y="112" width="310" height="26" as="geometry" />
        </mxCell>
        <mxCell id="kcjF0Bzhrz3PN26yfvxr-30" value="+ Add(facility : Facility):&amp;nbsp;" style="text;strokeColor=none;fillColor=none;align=left;verticalAlign=top;spacingLeft=4;spacingRight=4;overflow=hidden;rotatable=0;points=[[0,0.5],[1,0.5]];portConstraint=eastwest;whiteSpace=wrap;html=1;" parent="IFbbEQ-6FJ6GLovj2k8C-34" vertex="1">
          <mxGeometry y="138" width="310" height="26" as="geometry" />
        </mxCell>
        <mxCell id="kcjF0Bzhrz3PN26yfvxr-29" value="+ Remove(facility : Facility):&amp;nbsp;" style="text;strokeColor=none;fillColor=none;align=left;verticalAlign=top;spacingLeft=4;spacingRight=4;overflow=hidden;rotatable=0;points=[[0,0.5],[1,0.5]];portConstraint=eastwest;whiteSpace=wrap;html=1;" parent="IFbbEQ-6FJ6GLovj2k8C-34" vertex="1">
          <mxGeometry y="164" width="310" height="26" as="geometry" />
        </mxCell>
        <mxCell id="kcjF0Bzhrz3PN26yfvxr-28" value="+ Update(facility : Facility):&amp;nbsp;" style="text;strokeColor=none;fillColor=none;align=left;verticalAlign=top;spacingLeft=4;spacingRight=4;overflow=hidden;rotatable=0;points=[[0,0.5],[1,0.5]];portConstraint=eastwest;whiteSpace=wrap;html=1;" parent="IFbbEQ-6FJ6GLovj2k8C-34" vertex="1">
          <mxGeometry y="190" width="310" height="26" as="geometry" />
        </mxCell>
        <mxCell id="kcjF0Bzhrz3PN26yfvxr-27" value="+ GetById(Id : string): Facility&amp;nbsp;" style="text;strokeColor=none;fillColor=none;align=left;verticalAlign=top;spacingLeft=4;spacingRight=4;overflow=hidden;rotatable=0;points=[[0,0.5],[1,0.5]];portConstraint=eastwest;whiteSpace=wrap;html=1;" parent="IFbbEQ-6FJ6GLovj2k8C-34" vertex="1">
          <mxGeometry y="216" width="310" height="26" as="geometry" />
        </mxCell>
        <mxCell id="IFbbEQ-6FJ6GLovj2k8C-38" value="IncidentRepo" style="swimlane;fontStyle=1;align=center;verticalAlign=top;childLayout=stackLayout;horizontal=1;startSize=26;horizontalStack=0;resizeParent=1;resizeParentMax=0;resizeLast=0;collapsible=1;marginBottom=0;whiteSpace=wrap;html=1;" parent="1" vertex="1">
          <mxGeometry x="1297" y="873" width="290" height="242" as="geometry" />
        </mxCell>
        <mxCell id="IFbbEQ-6FJ6GLovj2k8C-39" value="+ field: type" style="text;strokeColor=none;fillColor=none;align=left;verticalAlign=top;spacingLeft=4;spacingRight=4;overflow=hidden;rotatable=0;points=[[0,0.5],[1,0.5]];portConstraint=eastwest;whiteSpace=wrap;html=1;" parent="IFbbEQ-6FJ6GLovj2k8C-38" vertex="1">
          <mxGeometry y="26" width="290" height="26" as="geometry" />
        </mxCell>
        <mxCell id="IFbbEQ-6FJ6GLovj2k8C-40" value="" style="line;strokeWidth=1;fillColor=none;align=left;verticalAlign=middle;spacingTop=-1;spacingLeft=3;spacingRight=3;rotatable=0;labelPosition=right;points=[];portConstraint=eastwest;strokeColor=inherit;" parent="IFbbEQ-6FJ6GLovj2k8C-38" vertex="1">
          <mxGeometry y="52" width="290" height="8" as="geometry" />
        </mxCell>
        <mxCell id="kcjF0Bzhrz3PN26yfvxr-31" value="+ GetAll(): observableCollection&amp;lt;Facility&amp;gt;" style="text;strokeColor=none;fillColor=none;align=left;verticalAlign=top;spacingLeft=4;spacingRight=4;overflow=hidden;rotatable=0;points=[[0,0.5],[1,0.5]];portConstraint=eastwest;whiteSpace=wrap;html=1;" parent="IFbbEQ-6FJ6GLovj2k8C-38" vertex="1">
          <mxGeometry y="60" width="290" height="26" as="geometry" />
        </mxCell>
        <mxCell id="kcjF0Bzhrz3PN26yfvxr-33" value="- FromStringToFacilityList(s: string): List&amp;lt;Facility&amp;gt;" style="text;strokeColor=none;fillColor=none;align=left;verticalAlign=top;spacingLeft=4;spacingRight=4;overflow=hidden;rotatable=0;points=[[0,0.5],[1,0.5]];portConstraint=eastwest;whiteSpace=wrap;html=1;" parent="IFbbEQ-6FJ6GLovj2k8C-38" vertex="1">
          <mxGeometry y="86" width="290" height="26" as="geometry" />
        </mxCell>
        <mxCell id="kcjF0Bzhrz3PN26yfvxr-32" value="- GetStringFromDB(): string" style="text;strokeColor=none;fillColor=none;align=left;verticalAlign=top;spacingLeft=4;spacingRight=4;overflow=hidden;rotatable=0;points=[[0,0.5],[1,0.5]];portConstraint=eastwest;whiteSpace=wrap;html=1;" parent="IFbbEQ-6FJ6GLovj2k8C-38" vertex="1">
          <mxGeometry y="112" width="290" height="26" as="geometry" />
        </mxCell>
        <mxCell id="kcjF0Bzhrz3PN26yfvxr-37" value="+ Add(facility : Facility):&amp;nbsp;" style="text;strokeColor=none;fillColor=none;align=left;verticalAlign=top;spacingLeft=4;spacingRight=4;overflow=hidden;rotatable=0;points=[[0,0.5],[1,0.5]];portConstraint=eastwest;whiteSpace=wrap;html=1;" parent="IFbbEQ-6FJ6GLovj2k8C-38" vertex="1">
          <mxGeometry y="138" width="290" height="26" as="geometry" />
        </mxCell>
        <mxCell id="kcjF0Bzhrz3PN26yfvxr-36" value="+ Remove(facility : Facility):&amp;nbsp;" style="text;strokeColor=none;fillColor=none;align=left;verticalAlign=top;spacingLeft=4;spacingRight=4;overflow=hidden;rotatable=0;points=[[0,0.5],[1,0.5]];portConstraint=eastwest;whiteSpace=wrap;html=1;" parent="IFbbEQ-6FJ6GLovj2k8C-38" vertex="1">
          <mxGeometry y="164" width="290" height="26" as="geometry" />
        </mxCell>
        <mxCell id="kcjF0Bzhrz3PN26yfvxr-35" value="+ Update(facility : Facility):&amp;nbsp;" style="text;strokeColor=none;fillColor=none;align=left;verticalAlign=top;spacingLeft=4;spacingRight=4;overflow=hidden;rotatable=0;points=[[0,0.5],[1,0.5]];portConstraint=eastwest;whiteSpace=wrap;html=1;" parent="IFbbEQ-6FJ6GLovj2k8C-38" vertex="1">
          <mxGeometry y="190" width="290" height="26" as="geometry" />
        </mxCell>
        <mxCell id="kcjF0Bzhrz3PN26yfvxr-34" value="+ GetById(Id : string): Facility&amp;nbsp;" style="text;strokeColor=none;fillColor=none;align=left;verticalAlign=top;spacingLeft=4;spacingRight=4;overflow=hidden;rotatable=0;points=[[0,0.5],[1,0.5]];portConstraint=eastwest;whiteSpace=wrap;html=1;" parent="IFbbEQ-6FJ6GLovj2k8C-38" vertex="1">
          <mxGeometry y="216" width="290" height="26" as="geometry" />
        </mxCell>
        <mxCell id="tnhocRQcM_d4h_FGvi7k-1" value="" style="endArrow=classic;html=1;rounded=0;" edge="1" parent="1" source="bo5SSvQVIFfWiV_Lwgm2-63" target="bo5SSvQVIFfWiV_Lwgm2-63">
          <mxGeometry width="50" height="50" relative="1" as="geometry">
            <mxPoint x="610" y="320" as="sourcePoint" />
            <mxPoint x="660" y="270" as="targetPoint" />
            <Array as="points">
              <mxPoint x="310" y="230" />
            </Array>
          </mxGeometry>
        </mxCell>
        <mxCell id="tnhocRQcM_d4h_FGvi7k-2" value="" style="endArrow=classic;html=1;rounded=0;" edge="1" parent="1" source="bo5SSvQVIFfWiV_Lwgm2-8" target="bo5SSvQVIFfWiV_Lwgm2-13">
          <mxGeometry width="50" height="50" relative="1" as="geometry">
            <mxPoint x="520" y="320" as="sourcePoint" />
            <mxPoint x="570" y="270" as="targetPoint" />
          </mxGeometry>
        </mxCell>
        <mxCell id="tnhocRQcM_d4h_FGvi7k-3" value="" style="endArrow=classic;html=1;rounded=0;" edge="1" parent="1" source="bo5SSvQVIFfWiV_Lwgm2-4" target="bo5SSvQVIFfWiV_Lwgm2-9">
          <mxGeometry width="50" height="50" relative="1" as="geometry">
            <mxPoint x="610" y="130" as="sourcePoint" />
            <mxPoint x="457" y="330" as="targetPoint" />
          </mxGeometry>
        </mxCell>
        <mxCell id="tnhocRQcM_d4h_FGvi7k-5" value="" style="endArrow=classic;html=1;rounded=0;exitX=0.486;exitY=1.202;exitDx=0;exitDy=0;exitPerimeter=0;entryX=0.5;entryY=0;entryDx=0;entryDy=0;" edge="1" parent="1" target="tnhocRQcM_d4h_FGvi7k-6">
          <mxGeometry width="50" height="50" relative="1" as="geometry">
            <mxPoint x="420.00000000000006" y="406.00200000000007" as="sourcePoint" />
            <mxPoint x="426.2036228068792" y="579.75" as="targetPoint" />
            <Array as="points">
              <mxPoint x="420" y="470" />
              <mxPoint x="710" y="470" />
            </Array>
          </mxGeometry>
        </mxCell>
        <mxCell id="tnhocRQcM_d4h_FGvi7k-32" value="" style="edgeStyle=orthogonalEdgeStyle;rounded=0;orthogonalLoop=1;jettySize=auto;html=1;entryX=0.639;entryY=0.002;entryDx=0;entryDy=0;entryPerimeter=0;" edge="1" parent="1" source="tnhocRQcM_d4h_FGvi7k-6" target="bo5SSvQVIFfWiV_Lwgm2-29">
          <mxGeometry relative="1" as="geometry">
            <mxPoint x="710" y="850" as="targetPoint" />
            <Array as="points">
              <mxPoint x="710" y="820" />
              <mxPoint x="426" y="820" />
            </Array>
          </mxGeometry>
        </mxCell>
        <mxCell id="tnhocRQcM_d4h_FGvi7k-6" value="FacilityService" style="swimlane;fontStyle=1;align=center;verticalAlign=top;childLayout=stackLayout;horizontal=1;startSize=26;horizontalStack=0;resizeParent=1;resizeParentMax=0;resizeLast=0;collapsible=1;marginBottom=0;whiteSpace=wrap;html=1;" vertex="1" parent="1">
          <mxGeometry x="570" y="610" width="280" height="160" as="geometry" />
        </mxCell>
        <mxCell id="tnhocRQcM_d4h_FGvi7k-8" value="- facilityRepo : FacilityRepo" style="text;strokeColor=none;fillColor=none;align=left;verticalAlign=top;spacingLeft=4;spacingRight=4;overflow=hidden;rotatable=0;points=[[0,0.5],[1,0.5]];portConstraint=eastwest;whiteSpace=wrap;html=1;" vertex="1" parent="tnhocRQcM_d4h_FGvi7k-6">
          <mxGeometry y="26" width="280" height="26" as="geometry" />
        </mxCell>
        <mxCell id="tnhocRQcM_d4h_FGvi7k-9" value="- overflowRepo : OverflowRepo" style="text;strokeColor=none;fillColor=none;align=left;verticalAlign=top;spacingLeft=4;spacingRight=4;overflow=hidden;rotatable=0;points=[[0,0.5],[1,0.5]];portConstraint=eastwest;whiteSpace=wrap;html=1;" vertex="1" parent="tnhocRQcM_d4h_FGvi7k-6">
          <mxGeometry y="52" width="280" height="26" as="geometry" />
        </mxCell>
        <mxCell id="tnhocRQcM_d4h_FGvi7k-10" value="- restrictionRepo : RestrictionRepo" style="text;strokeColor=none;fillColor=none;align=left;verticalAlign=top;spacingLeft=4;spacingRight=4;overflow=hidden;rotatable=0;points=[[0,0.5],[1,0.5]];portConstraint=eastwest;whiteSpace=wrap;html=1;" vertex="1" parent="tnhocRQcM_d4h_FGvi7k-6">
          <mxGeometry y="78" width="280" height="26" as="geometry" />
        </mxCell>
        <mxCell id="tnhocRQcM_d4h_FGvi7k-11" value="- incidentRepo : IncidentRepo" style="text;strokeColor=none;fillColor=none;align=left;verticalAlign=top;spacingLeft=4;spacingRight=4;overflow=hidden;rotatable=0;points=[[0,0.5],[1,0.5]];portConstraint=eastwest;whiteSpace=wrap;html=1;" vertex="1" parent="tnhocRQcM_d4h_FGvi7k-6">
          <mxGeometry y="104" width="280" height="26" as="geometry" />
        </mxCell>
        <mxCell id="tnhocRQcM_d4h_FGvi7k-7" value="" style="line;strokeWidth=1;fillColor=none;align=left;verticalAlign=middle;spacingTop=-1;spacingLeft=3;spacingRight=3;rotatable=0;labelPosition=right;points=[];portConstraint=eastwest;strokeColor=inherit;" vertex="1" parent="tnhocRQcM_d4h_FGvi7k-6">
          <mxGeometry y="130" width="280" height="4" as="geometry" />
        </mxCell>
        <mxCell id="tnhocRQcM_d4h_FGvi7k-12" value="+ GetAllData ()&amp;nbsp;" style="text;strokeColor=none;fillColor=none;align=left;verticalAlign=top;spacingLeft=4;spacingRight=4;overflow=hidden;rotatable=0;points=[[0,0.5],[1,0.5]];portConstraint=eastwest;whiteSpace=wrap;html=1;" vertex="1" parent="tnhocRQcM_d4h_FGvi7k-6">
          <mxGeometry y="134" width="280" height="26" as="geometry" />
        </mxCell>
        <mxCell id="tnhocRQcM_d4h_FGvi7k-33" value="" style="endArrow=classic;html=1;rounded=0;entryX=0.409;entryY=0.017;entryDx=0;entryDy=0;entryPerimeter=0;" edge="1" parent="1" target="IFbbEQ-6FJ6GLovj2k8C-30">
          <mxGeometry width="50" height="50" relative="1" as="geometry">
            <mxPoint x="710" y="820" as="sourcePoint" />
            <mxPoint x="780" y="820" as="targetPoint" />
          </mxGeometry>
        </mxCell>
        <mxCell id="tnhocRQcM_d4h_FGvi7k-34" value="" style="endArrow=classic;html=1;rounded=0;entryX=0.293;entryY=0.011;entryDx=0;entryDy=0;entryPerimeter=0;" edge="1" parent="1" target="IFbbEQ-6FJ6GLovj2k8C-34">
          <mxGeometry width="50" height="50" relative="1" as="geometry">
            <mxPoint x="710" y="820" as="sourcePoint" />
            <mxPoint x="970" y="820" as="targetPoint" />
            <Array as="points">
              <mxPoint x="910" y="820" />
              <mxPoint x="1048" y="820" />
            </Array>
          </mxGeometry>
        </mxCell>
        <mxCell id="tnhocRQcM_d4h_FGvi7k-37" value="" style="endArrow=classic;html=1;rounded=0;entryX=0.44;entryY=0.018;entryDx=0;entryDy=0;entryPerimeter=0;" edge="1" parent="1" target="IFbbEQ-6FJ6GLovj2k8C-38">
          <mxGeometry width="50" height="50" relative="1" as="geometry">
            <mxPoint x="1050" y="820" as="sourcePoint" />
            <mxPoint x="1020" y="570" as="targetPoint" />
            <Array as="points">
              <mxPoint x="1260" y="820" />
              <mxPoint x="1425" y="820" />
            </Array>
          </mxGeometry>
        </mxCell>
        <mxCell id="tnhocRQcM_d4h_FGvi7k-38" value="" style="endArrow=block;html=1;rounded=0;entryX=0.507;entryY=0.992;entryDx=0;entryDy=0;entryPerimeter=0;endFill=0;" edge="1" parent="1" target="kcjF0Bzhrz3PN26yfvxr-10">
          <mxGeometry width="50" height="50" relative="1" as="geometry">
            <mxPoint x="1390" y="870" as="sourcePoint" />
            <mxPoint x="920" y="860" as="targetPoint" />
            <Array as="points">
              <mxPoint x="1390" y="800" />
              <mxPoint x="1280" y="800" />
              <mxPoint x="1170" y="800" />
            </Array>
          </mxGeometry>
        </mxCell>
        <mxCell id="tnhocRQcM_d4h_FGvi7k-40" value="" style="endArrow=none;html=1;rounded=0;exitX=0.468;exitY=0.008;exitDx=0;exitDy=0;exitPerimeter=0;" edge="1" parent="1" source="IFbbEQ-6FJ6GLovj2k8C-34">
          <mxGeometry width="50" height="50" relative="1" as="geometry">
            <mxPoint x="990" y="820" as="sourcePoint" />
            <mxPoint x="1180" y="800" as="targetPoint" />
            <Array as="points">
              <mxPoint x="1102" y="800" />
            </Array>
          </mxGeometry>
        </mxCell>
        <mxCell id="tnhocRQcM_d4h_FGvi7k-41" value="" style="endArrow=none;html=1;rounded=0;exitX=0.5;exitY=0;exitDx=0;exitDy=0;" edge="1" parent="1" source="IFbbEQ-6FJ6GLovj2k8C-30">
          <mxGeometry width="50" height="50" relative="1" as="geometry">
            <mxPoint x="990" y="820" as="sourcePoint" />
            <mxPoint x="1100" y="800" as="targetPoint" />
            <Array as="points">
              <mxPoint x="740" y="800" />
            </Array>
          </mxGeometry>
        </mxCell>
        <mxCell id="tnhocRQcM_d4h_FGvi7k-42" value="" style="endArrow=none;html=1;rounded=0;exitX=0.75;exitY=0;exitDx=0;exitDy=0;" edge="1" parent="1" source="bo5SSvQVIFfWiV_Lwgm2-29">
          <mxGeometry width="50" height="50" relative="1" as="geometry">
            <mxPoint x="710" y="790" as="sourcePoint" />
            <mxPoint x="760" y="800" as="targetPoint" />
            <Array as="points">
              <mxPoint x="457" y="800" />
            </Array>
          </mxGeometry>
        </mxCell>
        <mxCell id="tnhocRQcM_d4h_FGvi7k-43" value="" style="endArrow=classic;html=1;rounded=0;exitX=0.481;exitY=1.138;exitDx=0;exitDy=0;exitPerimeter=0;" edge="1" parent="1" source="kcjF0Bzhrz3PN26yfvxr-14" target="bo5SSvQVIFfWiV_Lwgm2-54">
          <mxGeometry width="50" height="50" relative="1" as="geometry">
            <mxPoint x="810" y="960" as="sourcePoint" />
            <mxPoint x="860" y="910" as="targetPoint" />
          </mxGeometry>
        </mxCell>
        <mxCell id="tnhocRQcM_d4h_FGvi7k-44" value="" style="endArrow=classic;html=1;rounded=0;exitX=0.462;exitY=1.09;exitDx=0;exitDy=0;exitPerimeter=0;" edge="1" parent="1" source="kcjF0Bzhrz3PN26yfvxr-20" target="IFbbEQ-6FJ6GLovj2k8C-5">
          <mxGeometry width="50" height="50" relative="1" as="geometry">
            <mxPoint x="580" y="1000" as="sourcePoint" />
            <mxPoint x="630" y="950" as="targetPoint" />
          </mxGeometry>
        </mxCell>
        <mxCell id="tnhocRQcM_d4h_FGvi7k-45" value="" style="endArrow=classic;html=1;rounded=0;exitX=0.497;exitY=0.919;exitDx=0;exitDy=0;exitPerimeter=0;entryX=0.5;entryY=0;entryDx=0;entryDy=0;" edge="1" parent="1" source="kcjF0Bzhrz3PN26yfvxr-27" target="IFbbEQ-6FJ6GLovj2k8C-1">
          <mxGeometry width="50" height="50" relative="1" as="geometry">
            <mxPoint x="950" y="1000" as="sourcePoint" />
            <mxPoint x="1000" y="950" as="targetPoint" />
          </mxGeometry>
        </mxCell>
        <mxCell id="tnhocRQcM_d4h_FGvi7k-46" value="" style="endArrow=classic;html=1;rounded=0;exitX=0.383;exitY=0.919;exitDx=0;exitDy=0;exitPerimeter=0;" edge="1" parent="1" source="kcjF0Bzhrz3PN26yfvxr-34" target="IFbbEQ-6FJ6GLovj2k8C-9">
          <mxGeometry width="50" height="50" relative="1" as="geometry">
            <mxPoint x="1090" y="1000" as="sourcePoint" />
            <mxPoint x="1140" y="950" as="targetPoint" />
          </mxGeometry>
        </mxCell>
        <mxCell id="tnhocRQcM_d4h_FGvi7k-47" value="" style="endArrow=classic;html=1;rounded=0;exitX=0.425;exitY=1.049;exitDx=0;exitDy=0;exitPerimeter=0;entryX=0.58;entryY=0.033;entryDx=0;entryDy=0;entryPerimeter=0;" edge="1" parent="1" source="bo5SSvQVIFfWiV_Lwgm2-12" target="bo5SSvQVIFfWiV_Lwgm2-25">
          <mxGeometry width="50" height="50" relative="1" as="geometry">
            <mxPoint x="630" y="680" as="sourcePoint" />
            <mxPoint x="680" y="630" as="targetPoint" />
          </mxGeometry>
        </mxCell>
      </root>
    </mxGraphModel>
  </diagram>
</mxfile>
